<?xml version="1.0" encoding="iso-8859-1"?>
<!-- Generator: Adobe Illustrator 19.0.0, SVG Export Plug-In . SVG Version: 6.00 Build 0)  -->
<svg version="1.1" id="Capa_1" xmlns="http://www.w3.org/2000/svg" xmlns:xlink="http://www.w3.org/1999/xlink" x="0px" y="0px"
	 viewBox="0 0 472 472" style="enable-background:new 0 0 472 472;" xml:space="preserve">
<path style="fill:#603813;" d="M8,372h456v32H8V372z"/>
<path style="fill:#FF3D53;" d="M40,68h80v304H40V68z"/>
<path style="fill:#55D08F;" d="M200,124h80v248h-80V124z"/>
<path style="fill:#F2F2F2;" d="M40,276h80v32H40V276z"/>
<g>
	<path style="fill:#E6E6E6;" d="M200,324h80v48h-80V324z"/>
	<path style="fill:#E6E6E6;" d="M200,172h80v-48h-80V172z"/>
</g>
<path style="fill:#FBCC34;" d="M120,68h80v304h-80V68z"/>
<path style="fill:#E6E6E6;" d="M120,276h80v32h-80V276z"/>
<path style="fill:#6B6D95;" d="M281.615,137.728l74.278-29.71l92.102,230.263l-74.278,29.71L281.615,137.728z"/>
<path style="fill:#F2F2F2;" d="M281.615,137.712l74.278-29.71l17.826,44.567l-74.278,29.71L281.615,137.712z"/>
<path d="M8,412h456c4.418,0,8-3.582,8-8v-32c0-4.418-3.582-8-8-8h-58.8l45.776-18.312c4.102-1.641,6.097-6.297,4.456-10.399
	c0,0,0-0.001,0-0.001L381.152,149.6l-17.824-44.568c-1.641-4.102-6.297-6.097-10.399-4.456c0,0-0.001,0-0.001,0L288,126.536V124
	c0-4.418-3.582-8-8-8h-72V68c0-4.418-3.582-8-8-8H40c-4.418,0-8,3.582-8,8v296H8c-4.418,0-8,3.582-8,8v32C0,408.418,3.582,412,8,412
	z M128,364v-48h64v48H128z M48,284h64v16H48V284z M272,316h-64V180h64V316z M192,300h-64v-16h64V300z M208,332h64v32h-64V332z
	 M288,175.2L363.512,364H288V175.2z M378.176,357.6L309.84,186.736l59.424-23.768l68.336,170.84L378.176,357.6z M351.44,118.4
	l11.88,29.704l-59.424,23.776L292,142.168L351.44,118.4z M272,132v32h-64v-32H272z M192,124v144h-64V76h64V124z M112,76v192H48V76
	L112,76z M48,316h64v48H48V316z M16,380h440v16H16V380z"/>
<path d="M72,100h16c4.418,0,8-3.582,8-8c0-4.418-3.582-8-8-8H72c-4.418,0-8,3.582-8,8C64,96.418,67.582,100,72,100z"/>
<path d="M80,116c-4.418,0-8,3.582-8,8v112c0,4.418,3.582,8,8,8s8-3.582,8-8V124C88,119.582,84.418,116,80,116z"/>
<path d="M152,100h16c4.418,0,8-3.582,8-8c0-4.418-3.582-8-8-8h-16c-4.418,0-8,3.582-8,8C144,96.418,147.582,100,152,100z"/>
<path d="M160,116c-4.418,0-8,3.582-8,8v112c0,4.418,3.582,8,8,8s8-3.582,8-8V124C168,119.582,164.418,116,160,116z"/>
<path d="M240,300c4.418,0,8-3.582,8-8v-88c0-4.418-3.582-8-8-8s-8,3.582-8,8v88C232,296.418,235.582,300,240,300z"/>
<path d="M355.896,194.16c-1.641-4.102-6.298-6.097-10.4-4.456s-6.097,6.298-4.456,10.4l0,0l32.68,81.712
	c1.644,4.102,6.302,6.096,10.404,4.452s6.096-6.302,4.452-10.404L355.896,194.16z"/>
<g>
</g>
<g>
</g>
<g>
</g>
<g>
</g>
<g>
</g>
<g>
</g>
<g>
</g>
<g>
</g>
<g>
</g>
<g>
</g>
<g>
</g>
<g>
</g>
<g>
</g>
<g>
</g>
<g>
</g>
</svg>
