<?xml version="1.0" encoding="iso-8859-1"?>
<!-- Generator: Adobe Illustrator 19.0.0, SVG Export Plug-In . SVG Version: 6.00 Build 0)  -->
<svg version="1.1" id="Layer_1" xmlns="http://www.w3.org/2000/svg" xmlns:xlink="http://www.w3.org/1999/xlink" x="0px" y="0px"
	 viewBox="0 0 490.667 490.667" style="enable-background:new 0 0 490.667 490.667;" xml:space="preserve">
<g>
	<g>
		<g>
			<path d="M105.515,146.987c4.608,3.691,11.307,2.965,14.997-1.643c30.613-38.144,76.075-60.011,124.8-60.011
				c48.725,0,94.187,21.867,124.8,60.011c2.112,2.624,5.227,3.989,8.341,3.989c2.347,0,4.693-0.768,6.656-2.347
				c4.587-3.691,5.333-10.411,1.643-14.997C352.064,88.789,300.523,64,245.312,64c-55.211,0-106.773,24.789-141.44,67.989
				C100.181,136.576,100.928,143.296,105.515,146.987z"/>
			<path d="M288,298.667c5.888,0,10.667-4.779,10.667-10.667v-74.667H320c5.888,0,10.667-4.779,10.667-10.667S325.888,192,320,192
				h-64c-5.888,0-10.667,4.779-10.667,10.667s4.779,10.667,10.667,10.667h21.333V288C277.333,293.888,282.112,298.667,288,298.667z"
				/>
			<path d="M170.667,224v42.667c0,17.643,14.357,32,32,32c17.643,0,32-14.357,32-32V224c0-17.643-14.357-32-32-32
				C185.024,192,170.667,206.357,170.667,224z M213.333,224v42.667c0,5.888-4.779,10.667-10.667,10.667S192,272.555,192,266.667V224
				c0-5.888,4.779-10.667,10.667-10.667S213.333,218.112,213.333,224z"/>
			<path d="M361.344,355.328c-30.592,32.235-71.787,50.005-115.989,50.005c-44.203,0-85.397-17.749-115.989-50.005
				c-4.032-4.267-10.795-4.437-15.083-0.405c-4.288,4.053-4.459,10.795-0.405,15.083c34.645,36.544,81.344,56.661,131.456,56.661
				s96.811-20.117,131.499-56.661c4.032-4.288,3.861-11.051-0.405-15.083C372.16,350.891,365.397,351.061,361.344,355.328z"/>
			<path d="M245.333,0C110.059,0,0,110.059,0,245.333s110.059,245.333,245.333,245.333s245.333-110.059,245.333-245.333
				S380.608,0,245.333,0z M245.333,469.333c-123.52,0-224-100.48-224-224s100.48-224,224-224s224,100.48,224,224
				S368.853,469.333,245.333,469.333z"/>
			<path d="M394.667,277.333h-32V256h10.667c5.888,0,10.667-4.779,10.667-10.667s-4.779-10.667-10.667-10.667h-10.667v-21.333h32
				c5.888,0,10.667-4.779,10.667-10.667S400.555,192,394.667,192H352c-5.888,0-10.667,4.779-10.667,10.667V288
				c0,5.888,4.779,10.667,10.667,10.667h42.667c5.888,0,10.667-4.779,10.667-10.667S400.555,277.333,394.667,277.333z"/>
			<path d="M116.651,291.755l32-85.333c2.069-5.525-0.725-11.669-6.229-13.739c-5.547-2.048-11.669,0.704-13.739,6.229
				l-22.016,58.709l-22.016-58.709c-2.069-5.504-8.213-8.256-13.739-6.229c-5.504,2.069-8.299,8.213-6.229,13.739l32,85.333
				c1.557,4.16,5.547,6.912,9.984,6.912C111.104,298.667,115.093,295.915,116.651,291.755z"/>
		</g>
	</g>
</g>
<g>
</g>
<g>
</g>
<g>
</g>
<g>
</g>
<g>
</g>
<g>
</g>
<g>
</g>
<g>
</g>
<g>
</g>
<g>
</g>
<g>
</g>
<g>
</g>
<g>
</g>
<g>
</g>
<g>
</g>
</svg>
