<?xml version="1.0" encoding="iso-8859-1"?>
<!-- Generator: Adobe Illustrator 19.0.0, SVG Export Plug-In . SVG Version: 6.00 Build 0)  -->
<svg version="1.1" id="Capa_1" xmlns="http://www.w3.org/2000/svg" xmlns:xlink="http://www.w3.org/1999/xlink" x="0px" y="0px"
	 viewBox="0 0 512 512" style="enable-background:new 0 0 512 512;" xml:space="preserve">
<g>
	<g>
		<path d="M507.249,152.957l-26.833-53.666C477.876,94.21,472.682,91,467,91s-10.876,3.21-13.416,8.292l-26.833,53.666
			c-3.108,6.216-4.751,13.175-4.751,20.125V436c0,24.813,20.187,45,45,45s45-20.187,45-45V173.082
			C512,166.132,510.357,159.173,507.249,152.957z M482,436c0,8.271-6.729,15-15,15s-15-6.729-15-15v-15h30V436z M482,391h-30V211h30
			V391z M482,181h-30v-7.918c0-2.317,0.548-4.637,1.583-6.708L467,139.541l13.417,26.833c1.035,2.071,1.583,4.391,1.583,6.708V181z"
			/>
	</g>
</g>
<g>
	<g>
		<path d="M345,60h-47.58c-6.192-17.459-22.865-30-42.42-30h-17.57C231.239,12.539,214.557,0,195,0s-36.239,12.539-42.43,30H135
			c-19.555,0-36.228,12.541-42.42,30H45C20.187,60,0,80.187,0,105v362c0,24.813,20.187,45,45,45h300c24.813,0,45-20.187,45-45V105
			C390,80.187,369.813,60,345,60z M120,75c0-8.271,6.729-15,15-15h30c8.284,0,15-6.716,15-15c0-8.271,6.729-15,15-15s15,6.729,15,15
			c0,8.284,6.716,15,15,15h30c8.271,0,15,6.729,15,15v15H120V75z M360,467c0,8.271-6.729,15-15,15H45c-8.271,0-15-6.729-15-15V105
			c0-8.271,6.729-15,15-15h45v15c0,8.284,6.716,15,15,15h180c8.284,0,15-6.716,15-15V90h45c8.271,0,15,6.729,15,15V467z"/>
	</g>
</g>
<g>
	<g>
		<path d="M175.606,155.393c-5.857-5.858-15.355-5.858-21.212,0L105,204.787l-19.394-19.394c-5.857-5.858-15.355-5.858-21.213,0
			c-5.858,5.858-5.858,15.355,0,21.213l30,30c5.857,5.857,15.355,5.858,21.213,0l60-60
			C181.464,170.748,181.464,161.251,175.606,155.393z"/>
	</g>
</g>
<g>
	<g>
		<path d="M175.606,260.393c-5.857-5.858-15.355-5.858-21.212,0L105,309.787l-19.394-19.394c-5.857-5.858-15.355-5.858-21.213,0
			c-5.858,5.858-5.858,15.355,0,21.213l30,30c5.857,5.857,15.355,5.858,21.213,0l60-60
			C181.464,275.748,181.464,266.251,175.606,260.393z"/>
	</g>
</g>
<g>
	<g>
		<path d="M175.606,365.393c-5.857-5.858-15.355-5.858-21.212,0L105,414.787l-19.394-19.394c-5.857-5.858-15.355-5.858-21.213,0
			c-5.858,5.858-5.858,15.355,0,21.213l30,30c5.857,5.857,15.355,5.858,21.213,0l60-60
			C181.464,380.748,181.464,371.251,175.606,365.393z"/>
	</g>
</g>
<g>
	<g>
		<path d="M315,391h-90c-8.284,0-15,6.716-15,15s6.716,15,15,15h90c8.284,0,15-6.716,15-15S323.284,391,315,391z"/>
	</g>
</g>
<g>
	<g>
		<path d="M315,181h-90c-8.284,0-15,6.716-15,15s6.716,15,15,15h90c8.284,0,15-6.716,15-15S323.284,181,315,181z"/>
	</g>
</g>
<g>
	<g>
		<path d="M315,286h-90c-8.284,0-15,6.716-15,15s6.716,15,15,15h90c8.284,0,15-6.716,15-15S323.284,286,315,286z"/>
	</g>
</g>
<g>
</g>
<g>
</g>
<g>
</g>
<g>
</g>
<g>
</g>
<g>
</g>
<g>
</g>
<g>
</g>
<g>
</g>
<g>
</g>
<g>
</g>
<g>
</g>
<g>
</g>
<g>
</g>
<g>
</g>
</svg>
